<?xml version="1.0" encoding="UTF-8"?><svg id="a" xmlns="http://www.w3.org/2000/svg" viewBox="0 0 371.64 216.62"><polygon points="27.14 41.73 55.19 9.12 73.43 9.12 44.88 41.24 74.22 78.51 55.79 78.51 27.14 41.93 27.14 41.73" fill="#d7f70e"/><polygon points="342.65 45.9 314.6 78.51 296.36 78.51 324.91 46.39 295.57 9.12 314 9.12 342.65 45.7 342.65 45.9" fill="#d7f70e"/><path d="M84.14,9.22h14.97v41.24c0,4.23,1.42,7.77,4.26,10.61,2.84,2.84,6.21,4.26,10.11,4.26s7.28-1.42,10.16-4.26c2.87-2.84,4.31-6.38,4.31-10.61V9.22h14.87v41.24c0,8.2-2.79,15.05-8.37,20.57-5.59,5.52-12.58,8.28-20.97,8.28s-15.22-2.73-20.87-8.18c-5.65-5.45-8.47-12.34-8.47-20.67V9.22Z" fill="#fff"/><path d="M191.39,9.12c6.54,0,11.8,1.77,15.76,5.3,3.97,3.54,5.95,7.95,5.95,13.23,0,3.17-.74,6.13-2.23,8.87-1.49,2.74-3.49,4.94-6,6.59,3.77,1.65,6.57,3.98,8.42,6.99,1.85,3.01,2.78,6.26,2.78,9.76,0,5.35-2,9.8-6,13.33-4,3.54-9.4,5.3-16.21,5.3h-35.69V9.12h33.21ZM172.56,22.5v15.46h18.34c2.38,0,4.31-.76,5.8-2.28,1.49-1.52,2.23-3.34,2.23-5.45s-.74-3.93-2.23-5.45c-1.49-1.52-3.42-2.28-5.8-2.28h-18.34ZM172.56,49.96v15.17h20.32c2.38,0,4.31-.73,5.8-2.18,1.49-1.45,2.23-3.24,2.23-5.35s-.74-3.92-2.23-5.4c-1.49-1.49-3.42-2.23-5.8-2.23h-20.32Z" fill="#fff"/><path d="M223.06,43.91c0-9.78,3.47-18.14,10.41-25.08,6.94-6.94,15.3-10.41,25.08-10.41s18.12,3.47,25.03,10.41c6.9,6.94,10.39,15.3,10.46,25.08v.3c0,9.58-3.44,17.81-10.31,24.68-7,6.94-15.4,10.41-25.18,10.41s-18.14-3.45-25.08-10.36c-6.94-6.9-10.41-15.25-10.41-25.03ZM237.93,43.91c0,6.01,1.98,11.1,5.95,15.27,3.9,4.16,8.79,6.25,14.67,6.25s10.79-2.08,14.72-6.25c3.93-4.16,5.9-9.25,5.9-15.27s-1.97-11.12-5.9-15.32c-3.93-4.2-8.84-6.3-14.72-6.3s-10.71,2.1-14.67,6.3c-3.97,4.2-5.95,9.3-5.95,15.32Z" fill="#fff"/><path d="M4.09,78.51V9.12h14.97v69.39H4.09Z" fill="#fff"/><path d="M10.36,105.4c6.9-6.9,15.22-10.36,24.96-10.36,7.04,0,13.33,1.84,18.89,5.52,5.56,3.68,9.75,8.65,12.58,14.89l-14.11,4.05c-1.64-3.29-4.01-5.84-7.1-7.65-3.09-1.81-6.51-2.71-10.26-2.71-5.85,0-10.74,2.04-14.65,6.11-3.92,4.08-5.87,9.11-5.87,15.09s1.95,11,5.87,15.04c3.91,4.04,8.79,6.07,14.65,6.07,4.21,0,8.04-1.12,11.49-3.35,3.45-2.24,5.97-5.46,7.55-9.67l-18.65.1-.2-12.53h33.25v5.62c0,9.87-3.19,17.99-9.57,24.37s-14.34,9.57-23.87,9.57-18.05-3.44-24.96-10.31c-6.91-6.87-10.36-15.17-10.36-24.91s3.45-18.05,10.36-24.96Z" fill="#fff"/><path d="M66.78,164.78v-69.05h14.8v55.34h32.16v13.71h-46.96Z" fill="#fff"/><path d="M104.86,130.36c0-9.73,3.45-18.05,10.36-24.96,6.91-6.9,15.23-10.36,24.96-10.36s18.04,3.45,24.91,10.36c6.87,6.9,10.34,15.23,10.41,24.96v.3c0,9.54-3.42,17.72-10.26,24.56-6.97,6.91-15.32,10.36-25.06,10.36s-18.05-3.44-24.96-10.31c-6.91-6.87-10.36-15.17-10.36-24.91ZM119.66,130.36c0,5.99,1.97,11.05,5.92,15.19,3.88,4.14,8.75,6.22,14.6,6.22s10.74-2.07,14.65-6.22,5.87-9.21,5.87-15.19-1.96-11.06-5.87-15.24c-3.91-4.17-8.8-6.26-14.65-6.26s-10.65,2.09-14.6,6.26c-3.95,4.18-5.92,9.26-5.92,15.24Z" fill="#fff"/><path d="M206.57,95.73c6.51,0,11.74,1.76,15.68,5.28,3.95,3.52,5.92,7.91,5.92,13.17,0,3.16-.74,6.1-2.22,8.83-1.48,2.73-3.47,4.92-5.97,6.56,3.75,1.64,6.54,3.96,8.39,6.96,1.84,2.99,2.76,6.23,2.76,9.72,0,5.33-1.99,9.75-5.97,13.27-3.98,3.52-9.36,5.28-16.13,5.28h-35.51v-69.05h33.05ZM187.83,109.05v15.39h18.25c2.37,0,4.29-.76,5.77-2.27s2.22-3.32,2.22-5.43-.74-3.91-2.22-5.42c-1.48-1.51-3.4-2.27-5.77-2.27h-18.25ZM187.83,136.37v15.09h20.22c2.37,0,4.29-.72,5.77-2.17,1.48-1.45,2.22-3.22,2.22-5.33s-.74-3.9-2.22-5.38-3.41-2.22-5.77-2.22h-20.22Z" fill="#fff"/><path d="M224.52,164.78l26.44-69.05h15.19l27.23,69.05h-15.29l-19.63-51.79-18.64,51.79h-15.29ZM304.23,164.78l-6.81-17.26v-51.79h14.8v55.34h32.16v13.71h-40.15Z" fill="#fff"/><path d="M2.27,197.9h11.65v2.87h-4.2v11.49h-3.08v-11.49H2.27v-2.87Z" fill="#d7f70e"/><path d="M27.3,197.9v2.85h-7.32v2.93h6.5v2.79h-6.5v2.93h7.32v2.85h-10.4v-14.36h10.4Z" fill="#d7f70e"/><path d="M31.71,199.91c1.44-1.44,3.17-2.15,5.19-2.15,1.45,0,2.75.4,3.91,1.19,1.15.79,2.03,1.85,2.63,3.16l-2.93.84c-.79-1.49-2-2.24-3.61-2.26-1.22,0-2.23.42-3.04,1.27-.81.85-1.22,1.89-1.22,3.14s.41,2.29,1.22,3.13c.81.84,1.83,1.26,3.04,1.26,1.61,0,2.8-.72,3.55-2.16l2.97.8c-.59,1.3-1.46,2.34-2.61,3.12s-2.46,1.17-3.91,1.17c-2.02,0-3.75-.71-5.19-2.14-1.44-1.43-2.15-3.16-2.15-5.18s.72-3.75,2.15-5.19Z" fill="#d7f70e"/><path d="M49.39,197.9l6.54,9.66v-9.66h2.97v14.36h-3l-6.56-9.68v9.68h-2.97v-14.36h3.02Z" fill="#d7f70e"/><path d="M61.84,205.1c0-2.02.72-3.75,2.15-5.19s3.17-2.15,5.19-2.15,3.75.72,5.18,2.15,2.15,3.17,2.17,5.19v.06c0,1.98-.71,3.69-2.13,5.11-1.45,1.44-3.19,2.16-5.21,2.16s-3.75-.71-5.19-2.14c-1.44-1.43-2.15-3.16-2.15-5.18ZM64.91,205.1c0,1.25.41,2.3,1.23,3.16.8.86,1.82,1.29,3.03,1.29s2.23-.43,3.05-1.29c.81-.86,1.22-1.91,1.22-3.16s-.41-2.3-1.22-3.17c-.81-.87-1.83-1.3-3.05-1.3s-2.21.43-3.03,1.3c-.82.87-1.23,1.93-1.23,3.17Z" fill="#d7f70e"/><path d="M79.29,212.26v-14.36h3.08v11.51h6.69v2.85h-9.76Z" fill="#d7f70e"/><path d="M90.39,205.1c0-2.02.72-3.75,2.15-5.19s3.17-2.15,5.19-2.15,3.75.72,5.18,2.15,2.15,3.17,2.17,5.19v.06c0,1.98-.71,3.69-2.13,5.11-1.45,1.44-3.19,2.16-5.21,2.16s-3.75-.71-5.19-2.14c-1.44-1.43-2.15-3.16-2.15-5.18ZM93.47,205.1c0,1.25.41,2.3,1.23,3.16.8.86,1.82,1.29,3.03,1.29s2.23-.43,3.05-1.29c.81-.86,1.22-1.91,1.22-3.16s-.41-2.3-1.22-3.17c-.81-.87-1.83-1.3-3.05-1.3s-2.21.43-3.03,1.3c-.82.87-1.23,1.93-1.23,3.17Z" fill="#d7f70e"/><path d="M109.59,199.91c1.44-1.44,3.17-2.15,5.19-2.15,1.46,0,2.77.38,3.93,1.15s2.03,1.8,2.61,3.1l-2.93.84c-.34-.68-.84-1.21-1.48-1.59-.64-.37-1.35-.56-2.13-.56-1.22,0-2.23.42-3.04,1.27-.81.85-1.22,1.89-1.22,3.14s.41,2.29,1.22,3.13c.81.84,1.83,1.26,3.04,1.26.88,0,1.67-.23,2.39-.7.72-.46,1.24-1.13,1.57-2.01l-3.88.02-.04-2.61h6.91v1.17c0,2.05-.67,3.74-1.99,5.07-1.33,1.33-2.98,1.99-4.97,1.99s-3.75-.71-5.19-2.14c-1.44-1.43-2.15-3.16-2.15-5.18s.72-3.75,2.15-5.19Z" fill="#d7f70e"/><path d="M124.5,212.26v-14.36h2.97v14.36h-2.97ZM124.68,196.57l2.07-2.97h3.51l-2.93,2.97h-2.65Z" fill="#d7f70e"/><path d="M130.3,212.26l5.5-14.36h3.16l5.66,14.36h-3.18l-1.05-2.77h-5.91l-1.01,2.77h-3.18ZM139.39,206.82l-2.03-5.27-1.93,5.27h3.96Z" fill="#d7f70e"/><path d="M156.89,197.9l3.12,6.46,3.12-6.46h3.28l-4.82,9.87v4.49h-3.1v-4.41l-4.88-9.95h3.28Z" fill="#d7f70e"/><path d="M186.34,197.9v2.85h-7.32v2.93h6.5v2.79h-6.5v2.93h7.32v2.85h-10.4v-14.36h10.4Z" fill="#d7f70e"/><path d="M190.73,198.84c1.07-.75,2.4-1.13,4-1.13,1.82,0,3.49.51,5.02,1.54v3.16c-1.79-1.19-3.47-1.78-5.05-1.78-.77,0-1.37.12-1.83.36-.45.24-.68.58-.68,1.02,0,.37.22.66.66.87.44.21,1.14.44,2.11.69.53.14.96.26,1.27.35s.72.23,1.21.41.89.38,1.19.6c.3.22.6.48.9.79.3.31.52.67.67,1.09.14.42.21.88.21,1.4,0,1.31-.51,2.34-1.53,3.1-1.02.75-2.32,1.13-3.91,1.13-.96,0-1.87-.12-2.73-.37-.86-.24-1.85-.62-2.95-1.13v-3.16c2,1.16,3.9,1.74,5.72,1.74.77,0,1.34-.12,1.73-.36.39-.24.59-.57.59-1,0-.4-.2-.71-.6-.95s-.99-.46-1.78-.67c-1.64-.45-2.7-.79-3.18-1.01-1.76-.83-2.66-2.06-2.69-3.69,0-1.23.54-2.23,1.62-3Z" fill="#d7f70e"/><path d="M202.89,197.9h11.65v2.87h-4.2v11.49h-3.08v-11.49h-4.37v-2.87Z" fill="#d7f70e"/><path d="M217.52,212.26v-14.36h6.34c1.41,0,2.61.49,3.6,1.48.99.98,1.48,2.15,1.48,3.49,0,.93-.26,1.79-.79,2.58-.53.79-1.22,1.36-2.08,1.7l3.08,5.11h-3.28l-2.85-4.72h-2.42v4.72h-3.08ZM223.85,204.87c.59,0,1.09-.21,1.5-.62s.62-.91.62-1.5-.21-1.08-.62-1.49c-.41-.4-.91-.6-1.5-.6h-3.26v4.2h3.26Z" fill="#d7f70e"/><path d="M231.26,212.26l5.5-14.36h3.16l5.66,14.36h-3.18l-1.05-2.77h-5.91l-1.01,2.77h-3.18ZM240.35,206.82l-2.03-5.27-1.93,5.27h3.96Z" fill="#d7f70e"/><path d="M245.74,197.9h11.65v2.87h-4.2v11.49h-3.08v-11.49h-4.37v-2.87Z" fill="#d7f70e"/><path d="M270.76,197.9v2.85h-7.32v2.93h6.5v2.79h-6.5v2.93h7.32v2.85h-10.4v-14.36h10.4ZM264.26,196.57l2.07-2.97h3.51l-2.93,2.97h-2.65Z" fill="#d7f70e"/><path d="M275.07,199.91c1.44-1.44,3.17-2.15,5.19-2.15,1.46,0,2.77.38,3.93,1.15s2.03,1.8,2.61,3.1l-2.93.84c-.34-.68-.84-1.21-1.48-1.59-.64-.37-1.35-.56-2.13-.56-1.22,0-2.23.42-3.04,1.27-.81.85-1.22,1.89-1.22,3.14s.41,2.29,1.22,3.13c.81.84,1.83,1.26,3.04,1.26.88,0,1.67-.23,2.39-.7.72-.46,1.24-1.13,1.57-2.01l-3.88.02-.04-2.61h6.91v1.17c0,2.05-.67,3.74-1.99,5.07-1.33,1.33-2.98,1.99-4.97,1.99s-3.75-.71-5.19-2.14c-1.44-1.43-2.15-3.16-2.15-5.18s.72-3.75,2.15-5.19Z" fill="#d7f70e"/><path d="M289.98,212.26v-14.36h2.97v14.36h-2.97Z" fill="#d7f70e"/><path d="M295.68,212.26l5.5-14.36h3.16l5.66,14.36h-3.18l-1.05-2.77h-5.91l-1.01,2.77h-3.18ZM304.77,206.82l-2.03-5.27-1.93,5.27h3.96Z" fill="#d7f70e"/><rect x="321.69" y="193.54" width="23.08" height="23.08" fill="#fff"/><path d="M362.2,18.43c-1.95,0-3.62-.39-5.02-1.16s-2.47-1.85-3.22-3.23c-.74-1.38-1.12-2.97-1.12-4.78s.38-3.43,1.13-4.83c.75-1.39,1.84-2.48,3.25-3.26,1.42-.78,3.1-1.17,5.04-1.17s3.64.39,5.04,1.16c1.4.78,2.47,1.86,3.22,3.24.75,1.38,1.12,2.98,1.12,4.79s-.38,3.41-1.13,4.8c-.75,1.39-1.83,2.48-3.24,3.26-1.41.78-3.1,1.18-5.08,1.18ZM362.24,16.52c1.54,0,2.85-.31,3.95-.93,1.1-.62,1.93-1.47,2.52-2.57.58-1.1.88-2.37.88-3.81s-.29-2.71-.88-3.81c-.59-1.1-1.43-1.95-2.52-2.57-1.1-.62-2.41-.92-3.95-.92s-2.85.31-3.94.92c-1.1.62-1.94,1.47-2.52,2.57-.59,1.1-.88,2.37-.88,3.81s.29,2.71.88,3.81c.58,1.09,1.43,1.95,2.52,2.57,1.09.62,2.41.93,3.94.93ZM358.04,14.01V4.43h4.97c1.35,0,2.33.27,2.94.81.61.54.91,1.22.91,2.04,0,.56-.15,1.06-.43,1.5-.29.44-.71.78-1.28,1.01l1.83,4.08v.14h-3.06l-1.51-3.67h-1.51v3.67h-2.88ZM360.92,8.51h1.28c.52,0,.92-.08,1.2-.25.28-.17.42-.46.42-.89s-.15-.74-.43-.9c-.29-.16-.69-.24-1.19-.24h-1.28v2.28Z" fill="#fff"/></svg>