<?xml version="1.0" encoding="UTF-8"?><svg id="Capa_1" xmlns="http://www.w3.org/2000/svg" width="76" height="38" viewBox="0 0 76 38"><polygon points="5.55 7.32 11.29 1.6 15.02 1.6 9.18 7.23 15.18 13.77 11.41 13.77 5.55 7.36 5.55 7.32" fill="#d7f70e"/><polygon points="70.07 8.05 64.33 13.77 60.6 13.77 66.44 8.14 60.44 1.6 64.21 1.6 70.07 8.02 70.07 8.05" fill="#d7f70e"/><path d="M17.21,1.62h3.06v7.23c0,.74.29,1.36.87,1.86.58.5,1.27.75,2.07.75s1.49-.25,2.08-.75c.59-.5.88-1.12.88-1.86V1.62h3.04v7.23c0,1.44-.57,2.64-1.71,3.61-1.14.97-2.57,1.45-4.29,1.45s-3.11-.48-4.27-1.43-1.73-2.17-1.73-3.63V1.62Z"/><path d="M39.14,1.6c1.34,0,2.41.31,3.22.93.81.62,1.22,1.39,1.22,2.32,0,.56-.15,1.08-.46,1.56-.3.48-.71.87-1.23,1.16.77.29,1.34.7,1.72,1.23.38.53.57,1.1.57,1.71,0,.94-.41,1.72-1.23,2.34-.82.62-1.92.93-3.31.93h-7.3V1.6h6.79ZM35.29,3.95v2.71h3.75c.49,0,.88-.13,1.19-.4.3-.27.46-.59.46-.96s-.15-.69-.46-.96c-.3-.27-.7-.4-1.19-.4h-3.75ZM35.29,8.76v2.66h4.16c.49,0,.88-.13,1.19-.38.3-.25.46-.57.46-.94s-.15-.69-.46-.95c-.3-.26-.7-.39-1.19-.39h-4.16Z"/><path d="M45.61,7.7c0-1.72.71-3.18,2.13-4.4,1.42-1.22,3.13-1.83,5.13-1.83s3.71.61,5.12,1.83c1.41,1.22,2.12,2.68,2.14,4.4v.05c0,1.68-.7,3.12-2.11,4.33-1.43,1.22-3.15,1.83-5.15,1.83s-3.71-.61-5.13-1.82c-1.42-1.21-2.13-2.67-2.13-4.39ZM48.66,7.7c0,1.06.41,1.95,1.22,2.68.8.73,1.8,1.1,3,1.1s2.21-.37,3.01-1.1c.8-.73,1.21-1.62,1.21-2.68s-.4-1.95-1.21-2.69c-.8-.74-1.81-1.1-3.01-1.1s-2.19.37-3,1.1c-.81.74-1.22,1.63-1.22,2.69Z"/><path d="M.84,13.77V1.6h3.06v12.17H.84Z"/><path d="M2.12,18.49c1.41-1.21,3.11-1.82,5.1-1.82,1.44,0,2.73.32,3.86.97,1.14.65,1.99,1.52,2.57,2.61l-2.88.71c-.34-.58-.82-1.02-1.45-1.34-.63-.32-1.33-.48-2.1-.48-1.2,0-2.2.36-3,1.07-.8.72-1.2,1.6-1.2,2.65s.4,1.93,1.2,2.64c.8.71,1.8,1.06,3,1.06.86,0,1.64-.2,2.35-.59.71-.39,1.22-.96,1.54-1.7l-3.81.02-.04-2.2h6.8v.99c0,1.73-.65,3.16-1.96,4.27s-2.93,1.68-4.88,1.68-3.69-.6-5.1-1.81c-1.41-1.21-2.12-2.66-2.12-4.37s.71-3.17,2.12-4.38Z"/><path d="M13.66,28.91v-12.11h3.03v9.71h6.58v2.41h-9.6Z"/><path d="M21.44,22.87c0-1.71.71-3.17,2.12-4.38,1.41-1.21,3.11-1.82,5.1-1.82s3.69.61,5.09,1.82c1.4,1.21,2.11,2.67,2.13,4.38v.05c0,1.67-.7,3.11-2.1,4.31-1.43,1.21-3.13,1.82-5.12,1.82s-3.69-.6-5.1-1.81c-1.41-1.21-2.12-2.66-2.12-4.37ZM24.47,22.87c0,1.05.4,1.94,1.21,2.66.79.73,1.79,1.09,2.99,1.09s2.2-.36,3-1.09,1.2-1.61,1.2-2.66-.4-1.94-1.2-2.67c-.8-.73-1.8-1.1-3-1.1s-2.18.37-2.99,1.1c-.81.73-1.21,1.62-1.21,2.67Z"/><path d="M42.24,16.79c1.33,0,2.4.31,3.21.93.81.62,1.21,1.39,1.21,2.31,0,.55-.15,1.07-.45,1.55-.3.48-.71.86-1.22,1.15.77.29,1.34.7,1.71,1.22.38.53.56,1.09.56,1.7,0,.93-.41,1.71-1.22,2.33-.81.62-1.91.93-3.3.93h-7.26v-12.11h6.76ZM38.41,19.13v2.7h3.73c.48,0,.88-.13,1.18-.4s.45-.58.45-.95-.15-.69-.45-.95c-.3-.27-.7-.4-1.18-.4h-3.73ZM38.41,23.92v2.65h4.14c.48,0,.88-.13,1.18-.38.3-.25.45-.57.45-.93s-.15-.68-.45-.94-.7-.39-1.18-.39h-4.14Z"/><path d="M45.91,28.91l5.41-12.11h3.11l5.57,12.11h-3.13l-4.01-9.09-3.81,9.09h-3.13ZM62.21,28.91l-1.39-3.03v-9.08h3.03v9.71h6.58v2.41h-8.21Z"/><path d="M.46,34.72h2.38v.5h-.86v2.02h-.63v-2.02H.46v-.5Z" fill="#d7f70e"/><path d="M5.58,34.72v.5h-1.5v.51h1.33v.49h-1.33v.51h1.5v.5h-2.13v-2.52h2.13Z" fill="#d7f70e"/><path d="M6.48,35.07c.29-.25.65-.38,1.06-.38.3,0,.56.07.8.21.24.14.42.32.54.55l-.6.15c-.16-.26-.41-.39-.74-.4-.25,0-.46.07-.62.22-.17.15-.25.33-.25.55s.08.4.25.55c.17.15.37.22.62.22.33,0,.57-.13.73-.38l.61.14c-.12.23-.3.41-.53.55s-.5.21-.8.21c-.41,0-.77-.13-1.06-.38-.29-.25-.44-.55-.44-.91s.15-.66.44-.91Z" fill="#d7f70e"/><path d="M10.1,34.72l1.34,1.69v-1.69h.61v2.52h-.61l-1.34-1.7v1.7h-.61v-2.52h.62Z" fill="#d7f70e"/><path d="M12.65,35.98c0-.35.15-.66.44-.91s.65-.38,1.06-.38.77.13,1.06.38.44.56.44.91h0c0,.36-.15.66-.44.91-.3.25-.65.38-1.07.38s-.77-.13-1.06-.38c-.29-.25-.44-.55-.44-.91ZM13.27,35.98c0,.22.08.4.25.55.16.15.37.23.62.23s.46-.08.62-.23c.17-.15.25-.34.25-.55s-.08-.4-.25-.56c-.17-.15-.37-.23-.62-.23s-.45.08-.62.23c-.17.15-.25.34-.25.56Z" fill="#d7f70e"/><path d="M16.21,37.23v-2.52h.63v2.02h1.37v.5h-2Z" fill="#d7f70e"/><path d="M18.48,35.98c0-.35.15-.66.44-.91s.65-.38,1.06-.38.77.13,1.06.38.44.56.44.91h0c0,.36-.15.66-.44.91-.3.25-.65.38-1.07.38s-.77-.13-1.06-.38c-.29-.25-.44-.55-.44-.91ZM19.11,35.98c0,.22.08.4.25.55.16.15.37.23.62.23s.46-.08.62-.23c.17-.15.25-.34.25-.55s-.08-.4-.25-.56c-.17-.15-.37-.23-.62-.23s-.45.08-.62.23c-.17.15-.25.34-.25.56Z" fill="#d7f70e"/><path d="M22.41,35.07c.29-.25.65-.38,1.06-.38.3,0,.57.07.8.2s.41.32.53.54l-.6.15c-.07-.12-.17-.21-.3-.28-.13-.07-.28-.1-.44-.1-.25,0-.46.07-.62.22-.17.15-.25.33-.25.55s.08.4.25.55c.17.15.37.22.62.22.18,0,.34-.04.49-.12.15-.08.25-.2.32-.35h-.79s0-.45,0-.45h1.41v.21c0,.36-.14.66-.41.89-.27.23-.61.35-1.02.35s-.77-.13-1.06-.38c-.29-.25-.44-.55-.44-.91s.15-.66.44-.91Z" fill="#d7f70e"/><path d="M25.46,37.23v-2.52h.61v2.52h-.61ZM25.5,34.48l.42-.52h.72l-.6.52h-.54Z" fill="#d7f70e"/><path d="M26.65,37.23l1.12-2.52h.65l1.16,2.52h-.65l-.21-.49h-1.21l-.21.49h-.65ZM28.51,36.28l-.42-.92-.39.92h.81Z" fill="#d7f70e"/><path d="M32.08,34.72l.64,1.13.64-1.13h.67l-.99,1.73v.79h-.63v-.77l-1-1.75h.67Z" fill="#d7f70e"/><path d="M38.11,34.72v.5h-1.5v.51h1.33v.49h-1.33v.51h1.5v.5h-2.13v-2.52h2.13Z" fill="#d7f70e"/><path d="M39,34.88c.22-.13.49-.2.82-.2.37,0,.71.09,1.03.27v.55c-.37-.21-.71-.31-1.03-.31-.16,0-.28.02-.37.06-.09.04-.14.1-.14.18,0,.06.04.12.13.15.09.04.23.08.43.12.11.02.2.04.26.06s.15.04.25.07.18.07.24.1c.06.04.12.08.18.14.06.05.11.12.14.19.03.07.04.16.04.25,0,.23-.1.41-.31.54-.21.13-.47.2-.8.2-.2,0-.38-.02-.56-.07-.18-.04-.38-.11-.6-.2v-.55c.41.2.8.31,1.17.31.16,0,.27-.02.35-.06.08-.04.12-.1.12-.17,0-.07-.04-.13-.12-.17s-.2-.08-.36-.12c-.34-.08-.55-.14-.65-.18-.36-.15-.54-.36-.55-.65,0-.22.11-.39.33-.53Z" fill="#d7f70e"/><path d="M41.49,34.72h2.38v.5h-.86v2.02h-.63v-2.02h-.89v-.5Z" fill="#d7f70e"/><path d="M44.48,37.23v-2.52h1.3c.29,0,.53.09.74.26.2.17.3.38.3.61,0,.16-.05.31-.16.45-.11.14-.25.24-.43.3l.63.9h-.67l-.58-.83h-.5v.83h-.63ZM45.78,35.94c.12,0,.22-.04.31-.11s.13-.16.13-.26-.04-.19-.13-.26c-.08-.07-.19-.11-.31-.11h-.67v.74h.67Z" fill="#d7f70e"/><path d="M47.29,37.23l1.12-2.52h.65l1.16,2.52h-.65l-.21-.49h-1.21l-.21.49h-.65ZM49.15,36.28l-.42-.92-.39.92h.81Z" fill="#d7f70e"/><path d="M50.25,34.72h2.38v.5h-.86v2.02h-.63v-2.02h-.89v-.5Z" fill="#d7f70e"/><path d="M55.37,34.72v.5h-1.5v.51h1.33v.49h-1.33v.51h1.5v.5h-2.13v-2.52h2.13ZM54.04,34.48l.42-.52h.72l-.6.52h-.54Z" fill="#d7f70e"/><path d="M56.25,35.07c.29-.25.65-.38,1.06-.38.3,0,.57.07.8.2s.41.32.53.54l-.6.15c-.07-.12-.17-.21-.3-.28-.13-.07-.28-.1-.44-.1-.25,0-.46.07-.62.22-.17.15-.25.33-.25.55s.08.4.25.55c.17.15.37.22.62.22.18,0,.34-.04.49-.12.15-.08.25-.2.32-.35h-.79s0-.45,0-.45h1.41v.21c0,.36-.14.66-.41.89-.27.23-.61.35-1.02.35s-.77-.13-1.06-.38c-.29-.25-.44-.55-.44-.91s.15-.66.44-.91Z" fill="#d7f70e"/><path d="M59.3,37.23v-2.52h.61v2.52h-.61Z" fill="#d7f70e"/><path d="M60.47,37.23l1.12-2.52h.65l1.16,2.52h-.65l-.21-.49h-1.21l-.21.49h-.65ZM62.32,36.28l-.42-.92-.39.92h.81Z" fill="#d7f70e"/><rect x="65.78" y="33.95" width="4.72" height="4.05"/><path d="M74.07,3.23c-.4,0-.74-.07-1.03-.2s-.51-.32-.66-.57c-.15-.24-.23-.52-.23-.84s.08-.6.23-.85c.15-.24.38-.43.66-.57.29-.14.63-.21,1.03-.21s.74.07,1.03.2c.29.14.51.33.66.57.15.24.23.52.23.84s-.08.6-.23.84-.37.44-.66.57c-.29.14-.63.21-1.04.21ZM74.08,2.9c.31,0,.58-.05.81-.16.22-.11.4-.26.52-.45.12-.19.18-.41.18-.67s-.06-.48-.18-.67c-.12-.19-.29-.34-.52-.45s-.49-.16-.81-.16-.58.05-.81.16c-.22.11-.4.26-.52.45-.12.19-.18.41-.18.67s.06.48.18.67c.12.19.29.34.52.45.22.11.49.16.81.16ZM73.22,2.46V.78h1.02c.28,0,.48.05.6.14.12.09.19.21.19.36,0,.1-.03.19-.09.26-.06.08-.15.14-.26.18l.37.72v.02h-.63l-.31-.64h-.31v.64h-.59ZM73.81,1.49h.26c.11,0,.19-.01.25-.04.06-.03.09-.08.09-.16s-.03-.13-.09-.16-.14-.04-.24-.04h-.26v.4Z"/></svg>